#!OML:ASF X:\für Bonn\!DataBase\2005_08_10_Bjorn_Final\c3d\bjorn.ASF
:FULLY-SPECIFIED
:DEGREES
212
root -15.6626 18.9418 -1.94676 1801.26 -57.1505 -362.366
lowerback -3.21884 3.7352 1.65777
upperback 9.37826 5.18606 -4.64171
thorax 12.5901 2.87643 -5.28316
lowerneck -2.06391 -2.15483 7.88682
upperneck 11.3714 -2.85771 -5.43785
head 3.52547 -1.36485 -3.05109
rclavicle -7.95139e-016 3.33958e-014
rhumerus -1.09912 9.06869 -77.3488
rradius 105.71
rwrist -2.5444
rhand -33.2757 22.3614
rfingers 7.12502
rthumb -6.48035 -7.51947
lclavicle -7.95139e-016 3.33958e-014
lhumerus -22.639 -9.64409 88.6959
lradius 31.3622
lwrist -14.3148
lhand -21.0623 -7.94995
lfingers 7.12502
lthumb 5.31419 21.9634
rfemur 1.89125 11.0638 22.7344
rtibia 24.6777
rfoot -0.793654 39.6272
rtoes 25.5967
lfemur -26.9848 -5.72491 -17.2099
ltibia 25.5299
lfoot 16.7667 -28.6683
ltoes -0.474927
213
root -15.5602 18.9292 -2.01006 1801.15 -56.2876 -362.43
lowerback -2.85362 3.6522 2.10545
upperback 9.55088 5.01647 -4.4621
thorax 12.5723 2.83156 -5.37968
lowerneck -2.18776 -1.42529 7.96852
upperneck 11.5635 -1.82759 -6.0359
head 3.66352 -0.880503 -3.22243
rclavicle 1.90833e-014 -1.59028e-014
rhumerus -2.20175 10.6359 -77.6224
rradius 104.468
rwrist -2.22753
rhand -32.2353 21.4201
rfingers 7.12502
rthumb -5.47596 -8.48915
lclavicle 1.90833e-014 -1.59028e-014
lhumerus -22.6692 -10.187 89.0746
lradius 31.9238
lwrist -14.152
lhand -21.1459 -8.03288
lfingers 7.12502
lthumb 5.23346 21.8825
rfemur 1.66102 10.7301 22.8907
rtibia 24.8894
rfoot -2.65224 39.0589
rtoes 23.6367
lfemur -27.0731 -5.24907 -17.4197
ltibia 25.1484
lfoot 17.2293 -29
ltoes -2.96385
214
root -15.4564 18.92 -2.07408 1801.02 -55.4484 -362.456
lowerback -2.50905 3.57945 2.52509
upperback 9.74267 4.86358 -4.25739
thorax 12.5855 2.79088 -5.42813
lowerneck -2.29597 -0.694784 7.83769
upperneck 11.6794 -0.796641 -6.47286
head 3.78621 -0.399019 -3.30408
rclavicle -3.4191e-014 2.38542e-014
rhumerus -3.25092 12.0565 -77.8956
rradius 103.06
rwrist -1.92963
rhand -31.3015 20.6763
rfingers 7.12502
rthumb -4.57424 -9.25426
lclavicle -3.4191e-014 2.38542e-014
lhumerus -22.6348 -10.599 89.4752
lradius 32.4145
lwrist -14.1825
lhand -21.1473 -8.09807
lfingers 7.12502
lthumb 5.23209 21.8173
rfemur 1.38096 10.3676 23.0033
rtibia 25.1411
rfoot -4.43041 38.3658
rtoes 21.519
lfemur -27.1671 -4.53956 -17.7093
ltibia 24.7499
lfoot 17.3427 -29.332
ltoes -6.64182
215
root -15.352 18.9117 -2.13715 1800.95 -54.6847 -362.525
lowerback -2.15499 3.5473 2.98269
upperback 9.90751 4.76531 -4.05705
thorax 12.5734 2.78013 -5.49456
lowerneck -2.2915 0.0212677 7.70819
upperneck 11.7107 0.21762 -6.86108
head 3.86749 0.0767117 -3.36609
rclavicle -8.3092e-014 4.6118e-014
rhumerus -4.25719 13.2054 -78.2477
rradius 101.484
rwrist -1.72339
rhand -30.2096 20.067
rfingers 7.12502
rthumb -3.51982 -9.88365
lclavicle -8.3092e-014 4.6118e-014
lhumerus -22.6434 -11.0792 89.8608
lradius 32.894
lwrist -14.171
lhand -21.1688 -8.16639
lfingers 7.12502
lthumb 5.21135 21.7495
rfemur 1.05208 10.0491 23.1218
rtibia 25.4176
rfoot -5.90347 37.609
rtoes 19.8362
lfemur -27.2658 -3.58516 -18.0278
ltibia 24.3364
lfoot 17.483 -29.7277
ltoes -10.1886
216
root -15.2469 18.9054 -2.19812 1800.84 -53.9691 -362.526
lowerback -1.79822 3.53662 3.38171
upperback 10.0435 4.70261 -3.84513
thorax 12.523 2.7787 -5.50962
lowerneck -2.25527 0.734306 7.59849
upperneck 11.7772 1.23463 -7.28631
head 3.95763 0.552516 -3.44033
rclavicle 5.20816e-014 5.56597e-015
rhumerus -5.24337 14.1625 -78.5964
rradius 99.7675
rwrist -1.55775
rhand -28.7406 19.4246
rfingers 7.12502
rthumb -2.10119 -10.5448
lclavicle 5.20816e-014 5.56597e-015
lhumerus -22.7118 -11.5122 90.2708
lradius 33.3452
lwrist -14.224
lhand -21.2346 -8.2935
lfingers 7.12502
lthumb 5.1478 21.624
rfemur 0.671146 9.67187 23.1459
rtibia 25.7107
rfoot -6.88985 36.9542
rtoes 19.0856
lfemur -27.3618 -2.35915 -18.4662
ltibia 23.9145
lfoot 17.5437 -30.3356
ltoes -13.2541
217
root -15.1434 18.9023 -2.25713 1800.75 -53.2912 -362.525
lowerback -1.45673 3.54829 3.78015
upperback 10.1592 4.67433 -3.64661
thorax 12.4653 2.79425 -5.53364
lowerneck -2.17819 1.41791 7.60814
upperneck 11.8367 2.21688 -7.7893
head 4.04165 1.01268 -3.55764
rclavicle 7.15625e-015 -1.35174e-014
rhumerus -6.15429 14.9252 -79.0244
rradius 97.885
rwrist -1.26569
rhand -26.9931 18.5527
rfingers 7.12502
rthumb -0.41347 -11.4266
lclavicle 7.15625e-015 -1.35174e-014
lhumerus -22.8007 -11.8963 90.6264
lradius 33.7589
lwrist -14.3252
lhand -21.286 -8.42142
lfingers 7.12502
lthumb 5.09819 21.4973
rfemur 0.248309 9.33778 23.1519
rtibia 26.0362
rfoot -7.5207 36.3578
rtoes 19.0021
lfemur -27.4581 -0.943933 -18.9559
ltibia 23.4747
lfoot 17.6464 -30.9794
ltoes -15.8242
218
root -15.0394 18.9015 -2.31583 1800.64 -52.6348 -362.495
lowerback -1.08402 3.56703 4.15137
upperback 10.2435 4.66057 -3.44001
thorax 12.3503 2.81171 -5.53312
lowerneck -2.00731 2.08558 7.62039
upperneck 11.9185 3.1862 -8.30211
head 4.12122 1.46717 -3.67777
rclavicle 6.0033e-014 -3.65764e-014
rhumerus -7.02473 15.6443 -79.4061
rradius 95.9126
rwrist -1.07321
rhand -25.036 17.2255
rfingers 7.12502
rthumb 1.4768 -12.7492
lclavicle 6.0033e-014 -3.65764e-014
lhumerus -22.9552 -12.1986 90.9855
lradius 34.1129
lwrist -14.5457
lhand -21.3888 -8.61425
lfingers 7.12502
lthumb 4.99894 21.3068
rfemur -0.208488 8.98778 23.1211
rtibia 26.4072
rfoot -8.0111 35.7755
rtoes 18.9448
lfemur -27.5381 0.64855 -19.5158
ltibia 23.0116
lfoot 17.6923 -31.7147
ltoes -18.0038
219
root -14.9365 18.9034 -2.37278 1800.55 -51.9761 -362.426
lowerback -0.798302 3.59102 4.50525
upperback 10.3366 4.65826 -3.2559
thorax 12.3026 2.83588 -5.54209
lowerneck -1.93524 2.76218 7.67244
upperneck 12.0469 4.16555 -8.82691
head 4.23909 1.92504 -3.80503
rclavicle -4.09496e-014 2.70347e-014
rhumerus -7.78275 16.2577 -79.832
rradius 93.7619
rwrist -0.969564
rhand -23.0667 15.551
rfingers 7.12502
rthumb 3.37873 -14.402
lclavicle -4.09496e-014 2.70347e-014
lhumerus -23.0513 -12.4418 91.2778
lradius 34.3909
lwrist -14.8576
lhand -21.5747 -8.84293
lfingers 7.12502
lthumb 4.81945 21.0823
rfemur -0.739342 8.68055 23.0504
rtibia 26.8232
rfoot -8.43599 35.1256
rtoes 18.9886
lfemur -27.6522 2.42756 -20.1655
ltibia 22.5092
lfoot 17.9504 -32.421
ltoes -19.5944
220
root -14.8335 18.9096 -2.42721 1800.47 -51.3264 -362.364
lowerback -0.514626 3.62155 4.86444
upperback 10.4096 4.66534 -3.05331
thorax 12.2332 2.86299 -5.53256
lowerneck -1.84204 3.42484 7.63604
upperneck 12.2136 5.13173 -9.3031
head 4.36686 2.37397 -3.90058
rclavicle 2.127e-014 -6.36111e-015
rhumerus -8.48456 16.7501 -80.2408
rradius 91.469
rwrist -0.849511
rhand -20.9555 13.6024
rfingers 7.12502
rthumb 5.41734 -16.3083
lclavicle 2.127e-014 -6.36111e-015
lhumerus -23.2291 -12.6535 91.6088
lradius 34.6671
lwrist -15.1985
lhand -21.7984 -9.0735
lfingers 7.12502
lthumb 4.60342 20.8565
rfemur -1.30833 8.34316 22.9638
rtibia 27.2887
rfoot -9.05004 34.4895
rtoes 18.4348
lfemur -27.7655 4.28441 -20.8407
ltibia 22.0075
lfoot 17.9978 -33.1342
ltoes -20.933
221
root -14.7307 18.9185 -2.47991 1800.41 -50.6247 -362.297
lowerback -0.271389 3.62265 5.2206
upperback 10.4923 4.63335 -2.85142
thorax 12.1946 2.87163 -5.52498
lowerneck -1.79517 4.09178 7.74011
upperneck 12.3854 6.11427 -9.92519
head 4.51857 2.8279 -4.06063
rclavicle -2.74323e-014 1.27222e-014
rhumerus -9.06448 17.2135 -80.6219
rradius 89.0416
rwrist -0.878214
rhand -18.4609 11.3278
rfingers 7.12502
rthumb 7.82548 -18.5073
lclavicle -2.74323e-014 1.27222e-014
lhumerus -23.3597 -12.7827 91.9148
lradius 34.9058
lwrist -15.5966
lhand -22.0299 -9.22988
lfingers 7.12502
lthumb 4.37986 20.7048
rfemur -1.90434 7.92965 22.86
rtibia 27.7626
rfoot -9.63894 33.8725
rtoes 17.6127
lfemur -27.9186 6.17086 -21.5461
ltibia 21.5284
lfoot 18.0792 -33.6457
ltoes -20.7783
222
root -14.6276 18.9235 -2.5317 1800.42 -49.8911 -362.291
lowerback -0.0302888 3.61818 5.621
upperback 10.5538 4.59188 -2.6311
thorax 12.1342 2.87789 -5.52312
lowerneck -1.7763 4.76771 7.91322
upperneck 12.6676 7.12316 -10.6074
head 4.72365 3.29073 -4.24561
rclavicle -2.08724e-014 1.19271e-014
rhumerus -9.57827 17.5142 -81.0086
rradius 86.4911
rwrist -0.76508
rhand -15.5392 8.6224
rfingers 7.12502
rthumb 10.6447 -21.088
lclavicle -2.08724e-014 1.19271e-014
lhumerus -23.499 -12.7995 92.2252
lradius 35.0701
lwrist -16.0067
lhand -22.2742 -9.48959
lfingers 7.12502
lthumb 4.14395 20.4499
rfemur -2.5047 7.55837 22.7993
rtibia 28.2172
rfoot -10.1345 33.2111
rtoes 16.9709
lfemur -28.1323 8.15352 -22.2499
ltibia 21.1208
lfoot 17.9792 -34.047
ltoes -19.8542
223
root -14.527 18.9306 -2.58175 1800.39 -49.1611 -362.225
lowerback 0.162122 3.60954 5.9645
upperback 10.6334 4.54898 -2.42985
thorax 12.121 2.88035 -5.50752
lowerneck -1.8516 5.44912 8.1508
upperneck 12.9939 8.14161 -11.2856
head 4.97191 3.75591 -4.43249
rclavicle 4.51241e-014 -2.38542e-015
rhumerus -9.983 17.7392 -81.3851
rradius 83.8723
rwrist -0.480569
rhand -12.3712 5.71584
rfingers 7.12502
rthumb 13.6993 -23.8133
lclavicle 4.51241e-014 -2.38542e-015
lhumerus -23.6375 -12.8533 92.4964
lradius 35.2741
lwrist -16.2784
lhand -22.5131 -9.71398
lfingers 7.12502
lthumb 3.91326 20.2298
rfemur -3.07189 7.15587 22.6851
rtibia 28.6124
rfoot -10.6075 32.5832
rtoes 16.0754
lfemur -28.3707 10.0981 -22.9608
ltibia 20.8108
lfoot 17.6431 -34.3207
ltoes -19.5425
